<?xml version="1.0" encoding="utf-8"?>
<!-- Generator: Adobe Illustrator 27.0.1, SVG Export Plug-In . SVG Version: 6.00 Build 0)  -->
<svg version="1.1" id="Layer_1" xmlns="http://www.w3.org/2000/svg" xmlns:xlink="http://www.w3.org/1999/xlink" x="0px" y="0px"
	 viewBox="0 0 800 800" style="enable-background:new 0 0 800 800;" xml:space="preserve">
<style type="text/css">
	.st0{fill:url(#SVGID_1_);}
	.st1{fill:#FFFFFF;}
	.st2{fill:#E6E6E6;}
	.st3{fill:#CCCCCC;}
	.st4{fill:#FFFFFF;stroke:#FFFFFF;stroke-width:9;stroke-miterlimit:10;}
	.st5{fill:#1A1A1A;}
</style>
<linearGradient id="SVGID_1_" gradientUnits="userSpaceOnUse" x1="796.296" y1="124.2601" x2="54.2849" y2="634.3378">
	<stop  offset="0" style="stop-color:#4D4D4D"/>
	<stop  offset="1" style="stop-color:#000000"/>
</linearGradient>
<path class="st0" d="M594.9,721.5H195.4c-67.3,0-121.8-54.5-121.8-121.8V200.2c0-67.3,54.5-121.8,121.8-121.8h399.5
	c67.3,0,121.8,54.5,121.8,121.8v399.5C716.7,667,662.2,721.5,594.9,721.5z"/>
<path class="st1" d="M486.1,568.3l-232.4-33.6c-13-1.9-22.7-12.8-22.9-25.9l-4.9-235.8l259.2,22.3L486.1,568.3z"/>
<path class="st2" d="M485.1,295.2l-259.2-22.3l91.4-22.1c21.6-5.2,43.8-7.3,65.9-6.1l191,10.2L485.1,295.2z"/>
<path class="st3" d="M485.1,295.2l89.1-40.3l-0.9,231.9c-0.1,13.8-6.9,26.6-18.3,34.4l-68.8,47.1L485.1,295.2z"/>
<path class="st4" d="M315,369.1c-1.3-11.3-2.5-22.6-3.4-33.9l-34.7-2.4c-1-0.2-2-0.3-3.1-0.4l-55.6-3.9c-15.7-1.1-29,11.6-28.4,27.4
	l2.1,65.6c0.4,13.8,11.3,24.9,25.1,25.7l50.2,2.8c14.7,0.8,27.3-10.5,28-25.2l2.1-40.4c0.3-6.7,5.3-12.2,11.8-13.3
	c1.9-0.3,3.9-0.5,6.1-0.6C315.2,370,315.1,369.6,315,369.1z M260.9,433.2l-36.3-2c-9.9-0.6-17.8-8.6-18.1-18.6l-0.1-3.9l71.7,15.9
	C274.4,430.1,268,433.6,260.9,433.2z M281.5,408.4l-75.7-16.8l-0.7-21.8l77.6,17.2L281.5,408.4z M283.6,368.3l-0.1,2l-75.2-16.7
	c3.7-5.4,10.1-8.8,17.2-8.3l40.2,2.8C276.2,348.9,284.1,357.8,283.6,368.3z"/>
<path class="st5" d="M479.6,361.9l109.8-42.4c5.4-2.1,11.3,1.9,11.3,7.7v15c0,3.4-2,6.4-5.2,7.7L503.8,387L479.6,361.9z"/>
<path class="st5" d="M470.8,345.6l-94.6-5.9l-99.3-6.9c-1-0.2-2-0.3-3.1-0.4l-55.6-3.9c-15.7-1.1-29,11.6-28.4,27.4l2.1,65.6
	c0.4,13.8,11.3,24.9,25.1,25.7l50.2,2.8c14.7,0.8,27.3-10.5,28-25.2l2.1-40.4c0.3-6.7,5.3-12.2,11.8-13.3c0.3-0.1,0.6-0.1,0.9-0.1
	c14.9-2.3,27.9,10.1,27,25.1c-0.7,11.8-1.7,26.9-2.5,40.1c-1.1,17.6,10.9,33.4,28.1,37.1l93.8,20.1c21.3,4.6,41.7-10.9,43.1-32.7
	l4.8-77.2C505.4,363.7,490.5,346.8,470.8,345.6z M225.5,345.3l40.2,2.8c10.4,0.7,18.4,9.7,17.8,20.2l-0.1,2l-75.2-16.7
	C212,348.2,218.4,344.8,225.5,345.3z M205.8,391.6l-0.7-21.8l77.6,17.2l-1.1,21.4L205.8,391.6z M260.9,433.2l-36.3-2
	c-9.9-0.6-17.8-8.6-18.1-18.6l-0.1-3.9l71.7,15.9C274.4,430.1,268,433.6,260.9,433.2z M386.4,358.2l72,4.5
	c12.4,0.8,22.4,9.8,24.8,21.5l-114.8-20.6C373.5,359.8,379.7,357.7,386.4,358.2z M354.9,427.9l0.9-14.4L481,435.9l-0.9,14.4
	c0,0,0,0,0,0L354.9,427.9z M357,395.2l0.7-11.6c0.1-1.1,0.2-2.2,0.4-3.3l125,22.4l-0.9,15L357,395.2z M447.4,474.9l-71.3-15.3
	c-7.6-1.6-13.8-6.3-17.6-12.6l113.9,20.4C466.1,473.8,456.9,477,447.4,474.9z"/>
</svg>
